<?xml version="1.0" standalone="no"?>
<svg xmlns="http://www.w3.org/2000/svg" viewBox="0 0 149.736 36" width="149.736" height="36"><g fill="#00603c" color="#00603c" transform="translate(0 3.9999999999999982) scale(0.2800001)"><svg width="100.0" height="100.0" x="0.0" y="0.0" viewBox="0 0 100 100"><path d="M50,5C25.187,5,5,25.187,5,50c0,24.813,20.187,45,45,45c24.813,0,45-20.187,45-45C95,25.187,74.813,5,50,5z M91.664,48.585  c-0.229-0.137-0.492-0.236-0.826-0.236c-8.684,0-17.367,0-26.052,0c-1.869-3.237-3.738-6.477-5.608-9.714  c4.719-7.423,9.437-14.847,14.154-22.269c0.158-0.25,0.233-0.495,0.255-0.729C84.152,22.912,91.205,34.926,91.664,48.585z   M50.029,46.881c-1.469-2.404-2.94-4.809-4.41-7.213c2.999,0,5.996,0,8.995,0C53.084,42.072,51.557,44.477,50.029,46.881z   M47.058,48.349c-2.676,0-5.354,0-8.033,0c0.583-1.012,1.168-2.024,1.752-3.034c0.717-1.241,1.434-2.481,2.151-3.723  C44.304,43.843,45.682,46.096,47.058,48.349z M46.998,51.648c-1.392,2.191-2.786,4.383-4.178,6.572  c-1.199-2.075-2.396-4.15-3.595-6.226c-0.066-0.116-0.134-0.23-0.2-0.347C41.682,51.648,44.341,51.648,46.998,51.648z   M49.973,53.116c1.471,2.404,2.94,4.809,4.41,7.213c-2.998,0-5.998,0-8.995,0C46.916,57.925,48.445,55.521,49.973,53.116z   M52.944,51.648c2.676,0,5.354,0,8.03,0c-0.583,1.012-1.168,2.023-1.751,3.034c-0.718,1.24-1.433,2.481-2.149,3.722  C55.697,56.152,54.32,53.901,52.944,51.648z M53.004,48.349c1.392-2.191,2.784-4.382,4.176-6.571  c1.199,2.075,2.396,4.149,3.596,6.225c0.065,0.116,0.134,0.23,0.199,0.347C58.317,48.349,55.661,48.349,53.004,48.349z M50,8.3  c7.722,0,14.953,2.118,21.162,5.79c-0.255,0.123-0.492,0.316-0.679,0.611c-4.604,7.242-9.206,14.483-13.808,21.725  c-1.857-0.532-4.276-0.057-6.131-0.057c-1.579,0-4.776-0.595-7.006-0.104c-4.472-7.313-8.943-14.627-13.415-21.941  c-0.181-0.295-0.413-0.469-0.661-0.595C35.53,10.28,42.536,8.3,50,8.3z M27.043,15.211c0.012,0.251,0.068,0.511,0.232,0.778  c4.563,7.465,9.128,14.931,13.691,22.395c-1.917,3.322-3.835,6.644-5.752,9.965c-8.685,0-17.369,0-26.052,0  c-0.333,0-0.596,0.1-0.827,0.236C8.803,34.655,16.129,22.438,27.043,15.211z M8.335,51.411c0.23,0.138,0.493,0.237,0.827,0.237  c8.684,0,17.367,0,26.052,0c1.869,3.237,3.738,6.476,5.609,9.715c-4.718,7.422-9.436,14.846-14.154,22.267  c-0.16,0.252-0.235,0.498-0.255,0.735C15.846,77.09,8.793,65.074,8.335,51.411z M50,91.7c-7.722,0-14.955-2.117-21.164-5.791  c0.256-0.123,0.493-0.316,0.682-0.612c4.591-7.224,9.182-14.446,13.772-21.668c2.418,0,4.837,0,7.254,0  c1.466,0,4.091,0.476,5.958,0.166c4.458,7.293,8.917,14.586,13.376,21.879c0.18,0.295,0.414,0.469,0.662,0.595  C64.473,89.718,57.466,91.7,50,91.7z M72.958,84.787c-0.009-0.251-0.067-0.511-0.231-0.779c-4.521-7.395-9.041-14.791-13.563-22.186  c0.734-1.203,1.314-2.713,1.823-3.593c1.266-2.195,2.533-4.388,3.799-6.581c8.685,0,17.368,0,26.052,0  c0.334,0,0.597-0.1,0.826-0.237C91.197,65.342,83.872,77.561,72.958,84.787z"></path></svg></g><path fill="#00603c" fill-rule="nonzero" d="M10.13 12.58L10.13 12.58L7.03 12.50Q4.73 12.50 3.67 12.55L3.67 12.55Q3.41 13.34 2.92 15.04Q2.42 16.73 2.11 17.66Q1.80 18.60 1.01 18.60L1.01 18.60Q0.55 18.60 0.28 18.31Q0 18.02 0 17.68Q0 17.33 0.04 17.11Q0.07 16.90 0.20 16.46Q0.34 16.03 0.48 15.65L0.48 15.65Q1.18 13.58 1.49 12.62L1.49 12.62Q0.79 12.62 0.40 12.32Q0 12.02 0 11.52L0 11.52Q0 10.39 1.78 10.39L1.78 10.39L2.21 10.39Q4.51 3.96 4.86 3.04Q5.21 2.11 5.26 1.97Q5.30 1.82 5.41 1.55Q5.52 1.27 5.60 1.14Q5.69 1.01 5.81 0.82Q5.93 0.62 6.04 0.52Q6.14 0.41 6.29 0.31L6.29 0.31Q6.60 0.12 6.95 0.12Q7.30 0.12 7.51 0.19Q7.73 0.26 7.92 0.46Q8.11 0.65 8.24 0.86Q8.38 1.08 8.56 1.54Q8.74 1.99 8.88 2.38L8.88 2.38Q10.03 5.90 11.76 10.39L11.76 10.39L12.62 10.37Q13.25 10.37 13.64 10.70Q14.04 11.04 14.04 11.54L14.04 11.54Q14.04 12.60 12.46 12.67L12.46 12.67Q12.70 13.44 13.10 14.62L13.10 14.62Q14.04 17.16 14.04 17.56Q14.04 17.95 13.76 18.28Q13.49 18.60 13.01 18.60L13.01 18.60Q12.14 18.60 11.76 17.66L11.76 17.66Q11.35 16.49 10.13 12.58ZM4.90 8.66L4.27 10.49Q5.81 10.54 7.24 10.54Q8.66 10.54 9.53 10.49L9.53 10.49Q7.01 3.24 6.96 3.24L6.96 3.24Q6.82 3.24 4.90 8.66L4.90 8.66ZM18.07 17.06L18.07 17.06L18.17 9.24Q18.17 6.10 18.10 4.06Q18.02 2.02 18.02 1.82L18.02 1.82Q18.02 0.12 19.25 0.12Q20.47 0.12 20.47 1.82L20.47 1.82Q20.47 2.02 20.45 3.05L20.45 3.05Q20.33 6.10 20.33 8.63Q20.33 11.16 20.35 12.59Q20.38 14.02 20.42 15.01Q20.47 16.01 20.47 16.27L20.47 16.27Q21.62 16.39 22.97 16.39Q24.31 16.39 25.58 16.31Q26.86 16.22 27.25 16.22Q27.65 16.22 28.04 16.52Q28.44 16.82 28.44 17.35Q28.44 17.88 28.04 18.18Q27.65 18.48 27 18.48L27 18.48L23.42 18.36L19.54 18.48Q18.82 18.48 18.44 18.18Q18.07 17.88 18.07 17.06ZM32.33 17.06L32.33 17.06L32.42 9.24Q32.42 6.10 32.35 4.06Q32.28 2.02 32.28 1.82L32.28 1.82Q32.28 0.12 33.50 0.12Q34.73 0.12 34.73 1.82L34.73 1.82Q34.73 2.02 34.70 3.05L34.70 3.05Q34.58 6.10 34.58 8.63Q34.58 11.16 34.61 12.59Q34.63 14.02 34.68 15.01Q34.73 16.01 34.73 16.27L34.73 16.27Q35.88 16.39 37.22 16.39Q38.57 16.39 39.84 16.31Q41.11 16.22 41.51 16.22Q41.90 16.22 42.30 16.52Q42.70 16.82 42.70 17.35Q42.70 17.88 42.30 18.18Q41.90 18.48 41.26 18.48L41.26 18.48L37.68 18.36L33.79 18.48Q33.07 18.48 32.70 18.18Q32.33 17.88 32.33 17.06ZM52.15 11.09L52.15 11.09Q52.15 13.01 52.22 14.95L52.22 14.95L52.27 16.90Q52.27 18.60 51.05 18.60Q49.82 18.60 49.82 16.90L49.82 16.90L49.87 14.90Q49.94 12.91 49.94 11.06L49.94 11.06Q45.17 2.86 44.86 2.21Q44.54 1.56 44.54 1.15Q44.54 0.74 44.83 0.43Q45.12 0.12 45.66 0.12Q46.20 0.12 46.58 0.64Q46.97 1.15 48.37 3.89Q49.78 6.62 51.17 8.74L51.17 8.74Q51.74 7.87 53.20 5.18Q54.65 2.50 54.88 2.10Q55.10 1.70 55.20 1.52Q55.30 1.34 55.48 1.06Q55.66 0.77 55.76 0.64Q55.87 0.50 56.02 0.36L56.02 0.36Q56.26 0.12 56.69 0.12Q57.12 0.12 57.40 0.41Q57.67 0.70 57.67 1.10Q57.67 1.51 57.32 2.17Q56.98 2.83 55.81 4.82Q54.65 6.82 54.31 7.38Q53.98 7.94 53.36 9.01Q52.75 10.08 52.15 11.09ZM63.53 17.21L63.53 17.21Q63.53 17.83 63.19 18.22Q62.86 18.60 62.32 18.60Q61.78 18.60 61.44 18.22Q61.10 17.83 61.10 17.42Q61.10 17.02 61.13 15.86L61.13 15.86Q61.22 13.18 61.22 10.07Q61.22 6.96 61.16 4.33Q61.10 1.70 61.10 1.63L61.10 1.63Q61.10 0.94 61.45 0.53Q61.80 0.12 62.30 0.12L62.30 0.12Q63.07 0.12 63.50 1.06L63.50 1.06L68.86 12.55Q71.06 7.90 73.73 1.94L73.73 1.94Q74.26 0.77 74.54 0.44Q74.83 0.12 75.37 0.12Q75.91 0.12 76.26 0.52Q76.61 0.91 76.61 1.63L76.61 1.63Q76.49 2.26 76.49 7.08Q76.49 11.90 76.56 14.52Q76.63 17.14 76.63 17.21L76.63 17.21Q76.63 17.83 76.30 18.22Q75.96 18.60 75.42 18.60Q74.88 18.60 74.54 18.22Q74.21 17.83 74.21 17.41Q74.21 16.99 74.23 15.86L74.23 15.86Q74.38 11.66 74.38 9.43L74.38 9.43L74.38 5.76L70.03 14.90Q69.62 15.74 68.93 15.74Q68.23 15.74 67.80 14.86L67.80 14.86L63.38 5.76L63.38 9.43Q63.38 11.90 63.46 14.52Q63.53 17.14 63.53 17.21ZM94.87 9.55L94.87 9.55Q94.87 12.24 95.22 14.10Q95.57 15.96 96.07 16.20L96.07 16.20Q96.26 16.30 96.53 16.33Q96.79 16.37 96.91 16.44Q97.03 16.51 97.03 16.70L97.03 16.70Q97.03 17.57 96.55 18.12Q96.07 18.67 95.28 18.67L95.28 18.67Q94.22 18.67 93.70 17.47Q93.17 16.27 93.17 14.40L93.17 14.40Q91.90 16.42 90.49 17.57Q89.09 18.72 87.35 18.72Q85.61 18.72 84.41 17.89Q83.21 17.06 82.49 15.72L82.49 15.72Q81.05 12.96 81.05 9.65L81.05 9.65Q81.05 5.71 83.09 2.86Q85.13 0 88.37 0L88.37 0Q89.62 0 90.80 0.47Q91.99 0.94 92.78 1.66L92.78 1.66Q92.78 0 94.01 0L94.01 0Q95.52 0 95.52 2.42L95.52 2.42Q95.52 4.22 94.87 9.55ZM92.98 9.84L92.98 9.84L92.83 3.96Q90.79 2.09 88.37 2.09L88.37 2.09Q86.38 2.09 84.86 4.24Q83.35 6.38 83.35 9.46Q83.35 12.53 84.40 14.58Q85.44 16.63 87.23 16.63Q89.02 16.63 90.83 14.35Q92.64 12.07 92.98 9.84ZM106.54 2.06L106.54 2.06Q104.95 2.06 103.90 2.62L103.90 2.62Q103.82 3.77 103.82 6.05Q103.82 8.33 103.87 9.38L103.87 9.38Q105.34 9.74 107.10 9.74Q108.86 9.74 110.15 8.66Q111.43 7.58 111.43 5.89Q111.43 4.20 110.14 3.13Q108.84 2.06 106.54 2.06ZM101.50 17.21L101.50 17.21L101.69 9.19Q101.69 3.26 101.54 3.26L101.54 3.26Q101.02 3.19 100.75 2.90Q100.49 2.62 100.49 2.15Q100.49 1.68 101.18 1.22Q101.88 0.77 102.89 0.50L102.89 0.50Q104.90 0 106.39 0L106.39 0Q109.99 0 111.86 1.70Q113.74 3.41 113.74 5.88Q113.74 8.35 111.86 10.07Q109.99 11.78 107.02 11.78L107.02 11.78Q104.78 11.78 103.82 11.52L103.82 11.52L103.94 17.21Q103.94 17.83 103.61 18.22Q103.27 18.60 102.73 18.60Q102.19 18.60 101.84 18.22Q101.50 17.83 101.50 17.21Z" transform="translate(36, 8.64)"></path></svg>